<mxfile host="app.diagrams.net" agent="Mozilla/5.0 (Windows NT 10.0; Win64; x64) AppleWebKit/537.36 (KHTML, like Gecko) Chrome/135.0.0.0 Safari/537.36" version="28.1.2">
  <diagram name="第 1 页" id="2me2oeGT8YtzVLUqR1FI">
    <mxGraphModel dx="1188" dy="619" grid="1" gridSize="10" guides="1" tooltips="1" connect="1" arrows="1" fold="1" page="1" pageScale="1" pageWidth="827" pageHeight="1169" math="0" shadow="0">
      <root>
        <mxCell id="0" />
        <mxCell id="1" parent="0" />
        <mxCell id="xtak_svuXwCoNU0_wnzV-3" style="edgeStyle=orthogonalEdgeStyle;rounded=0;orthogonalLoop=1;jettySize=auto;html=1;dashed=1;" edge="1" parent="1" source="xtak_svuXwCoNU0_wnzV-1" target="xtak_svuXwCoNU0_wnzV-2">
          <mxGeometry relative="1" as="geometry" />
        </mxCell>
        <mxCell id="xtak_svuXwCoNU0_wnzV-1" value="订单审批通过后" style="rounded=0;whiteSpace=wrap;html=1;" vertex="1" parent="1">
          <mxGeometry x="240" y="90" width="120" height="60" as="geometry" />
        </mxCell>
        <mxCell id="xtak_svuXwCoNU0_wnzV-2" value="创建echop记录" style="rounded=0;whiteSpace=wrap;html=1;" vertex="1" parent="1">
          <mxGeometry x="240" y="260" width="120" height="60" as="geometry" />
        </mxCell>
        <mxCell id="xtak_svuXwCoNU0_wnzV-4" value="订单状态：审批通过" style="shape=document;whiteSpace=wrap;html=1;boundedLbl=1;" vertex="1" parent="1">
          <mxGeometry x="450" y="90" width="120" height="80" as="geometry" />
        </mxCell>
        <mxCell id="xtak_svuXwCoNU0_wnzV-5" value="定时任务扫描echop记录表" style="rounded=0;whiteSpace=wrap;html=1;" vertex="1" parent="1">
          <mxGeometry x="240" y="360" width="120" height="60" as="geometry" />
        </mxCell>
        <mxCell id="xtak_svuXwCoNU0_wnzV-13" style="edgeStyle=orthogonalEdgeStyle;rounded=0;orthogonalLoop=1;jettySize=auto;html=1;" edge="1" parent="1" source="xtak_svuXwCoNU0_wnzV-6" target="xtak_svuXwCoNU0_wnzV-9">
          <mxGeometry relative="1" as="geometry">
            <mxPoint x="300" y="760" as="targetPoint" />
          </mxGeometry>
        </mxCell>
        <mxCell id="xtak_svuXwCoNU0_wnzV-14" value="documentId为创建的文件id" style="edgeLabel;html=1;align=center;verticalAlign=middle;resizable=0;points=[];" vertex="1" connectable="0" parent="xtak_svuXwCoNU0_wnzV-13">
          <mxGeometry x="-0.0364" y="3" relative="1" as="geometry">
            <mxPoint as="offset" />
          </mxGeometry>
        </mxCell>
        <mxCell id="xtak_svuXwCoNU0_wnzV-6" value="&lt;div style=&quot;background-color: rgb(255, 255, 255); color: rgb(8, 8, 8);&quot;&gt;&lt;pre&gt;&lt;font color=&quot;#080808&quot; face=&quot;Courier New, monospace&quot;&gt;&lt;span&gt;1.1.1.1&lt;/span&gt;&lt;/font&gt;&lt;/pre&gt;&lt;pre&gt;&lt;font color=&quot;#080808&quot; face=&quot;Courier New, monospace&quot;&gt;&lt;span&gt;根据文件类型创建合同文档&lt;/span&gt;&lt;/font&gt;&lt;font color=&quot;rgba(0, 0, 0, 0)&quot; face=&quot;Courier New, monospace&quot;&gt;&lt;span&gt;&lt;/span&gt;&lt;/font&gt;&lt;/pre&gt;&lt;/div&gt;" style="rounded=0;whiteSpace=wrap;html=1;fontSize=11;" vertex="1" parent="1">
          <mxGeometry x="240" y="590" width="120" height="60" as="geometry" />
        </mxCell>
        <mxCell id="xtak_svuXwCoNU0_wnzV-22" style="edgeStyle=orthogonalEdgeStyle;rounded=0;orthogonalLoop=1;jettySize=auto;html=1;" edge="1" parent="1" source="xtak_svuXwCoNU0_wnzV-9" target="xtak_svuXwCoNU0_wnzV-20">
          <mxGeometry relative="1" as="geometry" />
        </mxCell>
        <mxCell id="xtak_svuXwCoNU0_wnzV-9" value="根据订单信息生成合同请求参数" style="rounded=0;whiteSpace=wrap;html=1;" vertex="1" parent="1">
          <mxGeometry x="240" y="810" width="120" height="60" as="geometry" />
        </mxCell>
        <mxCell id="xtak_svuXwCoNU0_wnzV-11" style="edgeStyle=orthogonalEdgeStyle;rounded=0;orthogonalLoop=1;jettySize=auto;html=1;entryX=0.5;entryY=0;entryDx=0;entryDy=0;" edge="1" parent="1" source="xtak_svuXwCoNU0_wnzV-10" target="xtak_svuXwCoNU0_wnzV-6">
          <mxGeometry relative="1" as="geometry" />
        </mxCell>
        <mxCell id="xtak_svuXwCoNU0_wnzV-12" value="存在" style="edgeLabel;html=1;align=center;verticalAlign=middle;resizable=0;points=[];" vertex="1" connectable="0" parent="xtak_svuXwCoNU0_wnzV-11">
          <mxGeometry x="-0.25" y="2" relative="1" as="geometry">
            <mxPoint as="offset" />
          </mxGeometry>
        </mxCell>
        <mxCell id="xtak_svuXwCoNU0_wnzV-10" value="判断订单是否存在审批记录" style="rhombus;whiteSpace=wrap;html=1;" vertex="1" parent="1">
          <mxGeometry x="235" y="440" width="130" height="110" as="geometry" />
        </mxCell>
        <mxCell id="xtak_svuXwCoNU0_wnzV-15" style="edgeStyle=orthogonalEdgeStyle;rounded=0;orthogonalLoop=1;jettySize=auto;html=1;entryX=1;entryY=0.65;entryDx=0;entryDy=0;entryPerimeter=0;" edge="1" parent="1" source="xtak_svuXwCoNU0_wnzV-10" target="xtak_svuXwCoNU0_wnzV-9">
          <mxGeometry relative="1" as="geometry">
            <Array as="points">
              <mxPoint x="530" y="495" />
              <mxPoint x="530" y="850" />
              <mxPoint x="365" y="850" />
            </Array>
          </mxGeometry>
        </mxCell>
        <mxCell id="xtak_svuXwCoNU0_wnzV-16" value="不存在" style="edgeLabel;html=1;align=center;verticalAlign=middle;resizable=0;points=[];" vertex="1" connectable="0" parent="xtak_svuXwCoNU0_wnzV-15">
          <mxGeometry x="-0.8534" y="-1" relative="1" as="geometry">
            <mxPoint as="offset" />
          </mxGeometry>
        </mxCell>
        <mxCell id="xtak_svuXwCoNU0_wnzV-17" value="CMS销售合同书-合同号(CMS无审批流)" style="edgeLabel;html=1;align=center;verticalAlign=middle;resizable=0;points=[];" vertex="1" connectable="0" parent="xtak_svuXwCoNU0_wnzV-15">
          <mxGeometry x="0.0296" y="2" relative="1" as="geometry">
            <mxPoint as="offset" />
          </mxGeometry>
        </mxCell>
        <mxCell id="xtak_svuXwCoNU0_wnzV-19" value="合同变更" style="rounded=0;whiteSpace=wrap;html=1;" vertex="1" parent="1">
          <mxGeometry x="245" y="1080" width="120" height="60" as="geometry" />
        </mxCell>
        <mxCell id="xtak_svuXwCoNU0_wnzV-20" value="是否已经存在合同记录" style="rhombus;whiteSpace=wrap;html=1;" vertex="1" parent="1">
          <mxGeometry x="260" y="940" width="80" height="80" as="geometry" />
        </mxCell>
      </root>
    </mxGraphModel>
  </diagram>
</mxfile>
